<svg width="26" height="18" viewBox="0 0 26 18" xmlns="http://www.w3.org/2000/svg"><title>Icon</title><path d="M23.827 11.18v4.835H3.284c-.701 0-1.092-.068-1.298-.126V3.118C5.33 5.89 8.788 7.46 12.93 9.457c1.803.869 7.726-3.69 10.897-6.14v7.864zM6.445 2.117c5.408 0 10.558-.361 15.9-.143l-3.796 2.624c-.648.449-1.376.806-2.06 1.199l-2.376 1.368c-.506.29-.79.355-.854.392-3.523-1.692-6.612-3.142-9.536-5.44h2.722zM25.917.996c-.013-.05-.033-.092-.053-.138-.156-.39-.518-.676-.944-.58-7.947-.631-15.86.01-23.827.01C.589.288 0 .703 0 1.212v15.384C0 17.1.725 18 1.235 18h23.639c.504 0 .939-.881.939-1.39V1.773a.963.963 0 0 0 .122-.665c-.005-.04-.008-.075-.018-.112z" fill-rule="evenodd"/></svg>