<svg width="10" height="18" viewBox="0 0 10 18" xmlns="http://www.w3.org/2000/svg"><title>Facebook</title><path d="M8.052 6.197c-1.179-.02-2.353-.149-3.524-.204.072-1.966.535-3.92 2.74-3.316 1.377.376 1.96-1.755.587-2.13C5.31-.15 3.386.695 2.63 3.246c-.261.878-.292 1.834-.284 2.78a9.104 9.104 0 0 0-1.562.271c-1.373.375-.79 2.506.587 2.13.324-.089.65-.146.977-.19-.046 2.625-.104 5.25-.112 7.876-.003 1.424 2.206 1.424 2.21 0 .006-2.464.048-4.927.1-7.39.002-.162 0-.351-.003-.55 1.171.059 2.349.213 3.51.232 1.425.024 1.422-2.185 0-2.209" fill-rule="evenodd"/></svg>