<svg width="19" height="18" viewBox="0 0 19 18" xmlns="http://www.w3.org/2000/svg"><title>Icon</title><path d="M4.71 7.629c.481 2.226 3.951 5.97 6.514 5.708.5-.048.94-.423 1.366-.785.617-.527.916-.73 1.19-.452.142.143.315.306.503.484.872.824 2.189 2.069 1.923 2.829-.16.459-.938.76-2.25.874-6.162-.917-11.069-5.5-12.212-11.376.008-.342.539-2.722 1.338-3.01a.422.422 0 0 1 .145-.026c.201 0 .424.14.664.418.607.704 1.279 1.33 1.885 1.874-.479.687-1.171 2.98-1.066 3.462m10.833 3.72c-.365-.305-.68-.568-.873-.763a1.614 1.614 0 0 0-1.289-.464c-.26.024-.6.224-.927.427l-.168.107-.584.54c-1.214.203-2.187-.075-3-.874-.656-.503-2.055-1.933-2.197-3.15-.044-.383.041-.7.26-.967.13-.16.226-.272.303-.362.27-.317.311-.365.658-1.004.267-.49-.044-1.137-.27-1.442C6.365 1.922 4.32-.47 2.881.08.796.877-.237 2.696.046 5.07c.867 7.25 7.731 12.069 13.747 12.92.048.01.089.003.106 0l.078.01.031-.002c1.067-.082 2.6-.704 3.466-1.735.488-.583.713-1.24.648-1.901-.091-.935-1.471-2.087-2.579-3.013" fill-rule="evenodd"/></svg>