<svg width="25" height="18" viewBox="0 0 25 18" xmlns="http://www.w3.org/2000/svg"><title>Twitter</title><path d="M21.076 6.926c-.289.046-.527.332-.601.598-1.33 4.76-3.76 7.478-8.903 7.936-2.512.224-4.753-.26-6.74-1.327 2.309.303 4.674-.139 6.066-2.037.277-.377.057-.95-.312-1.165-2.91-1.706-4.688-3.87-5.118-7.376-.11-.894 6.942 3.616 7.105 3.777.353.351 1.119.337 1.337-.18.486-1.153.926-2.318 1.515-3.425 1.59-2.99 4.18 1.025 4.965 2.082.326.44.583.794.85 1.091-.055.005-.108.022-.164.026m2.491-.51c-2.533-.845-3.12-4.67-5.967-5.452-2.602-.715-3.893 2.17-4.747 4.3-2.267-1.996-5.247-3.774-8.198-3.88-.47-.015-.847.394-.859.847-.077 3.032.781 5.308 2.657 7.675.407.514 3.057 1.759 1.61 2.34-1.81.73-4.5.08-6.17-.747a.835.835 0 0 0-.468-.078c-.045-.02-.078-.049-.13-.062a20.71 20.71 0 0 0-.228-.057c-.837-.21-1.419.808-.824 1.428 3.403 3.549 7.875 5.234 12.974 4.279 2.475-.464 4.305-1.219 6.08-3.025 1.828-1.86 1.682-5.025 4.266-5.923.805-.28.832-1.37.004-1.645" fill-rule="evenodd"/></svg>